#!OML:ASF F:\VICON\USERDATA\INSTALL\Justin_Nancy\Justin_Nancy.ASF
:FULLY-SPECIFIED
:DEGREES
81
root -9.81972 14.9987 -2.53102 -10.4723 33.5277 -9.18544
lowerback 17.7527 0.48511 2.78921
upperback 4.44203 1.77918 7.45232
thorax -5.33698 0.936528 6.029
lowerneck -16.731 0.99871 -6.26808
upperneck 19.2544 3.68635 -2.57143
head 8.75551 1.01849 0.616442
rclavicle -2.40529e-014 5.725e-014
rhumerus -35.5263 29.263 -67.7111
rradius 109.508
rwrist -7.53448
rhand -8.51675 23.8072
rfingers 7.12502
rthumb 17.4116 -5.43302
lclavicle -2.40529e-014 5.725e-014
lhumerus -42.9043 2.84929 80.551
lradius 103.916
lwrist 24.3808
lhand -13.8036 10.8249
lfingers 7.12502
lthumb 12.3185 40.4421
rfemur -22.4547 -2.12127 6.18001
rtibia 57.1805
rfoot -19.5781 -4.30171
rtoes -31.4496
lfemur -30.6808 8.26968 -15.2008
ltibia 88.9666
lfoot -6.33612 -26.3857
ltoes -3.73996
82
root -9.75176 14.981 -2.31659 -10.5793 34.1059 -9.46598
lowerback 18.1094 0.701886 3.00188
upperback 4.21185 2.14368 7.37662
thorax -5.798 1.11497 5.74386
lowerneck -16.1194 1.115 -5.65563
upperneck 19.4826 3.65308 -2.56386
head 8.72969 1.05061 0.511684
rclavicle -1.59028e-014 -1.74931e-014
rhumerus -34.1321 30.1315 -67.9887
rradius 108.574
rwrist -8.06554
rhand -8.36502 23.3699
rfingers 7.12502
rthumb 17.5576 -5.85732
lclavicle -1.59028e-014 -1.74931e-014
lhumerus -44.1329 3.19008 80.3065
lradius 103.858
lwrist 24.4332
lhand -13.7253 10.412
lfingers 7.12502
lthumb 12.3939 40.0246
rfemur -21.5096 -2.65753 6.36802
rtibia 57.5803
rfoot -20.689 -4.51348
rtoes -33.2514
lfemur -32.1053 9.3187 -15.9148
ltibia 89.5101
lfoot -7.44953 -24.5668
ltoes -5.39907
83
root -9.66776 14.9981 -2.10921 -10.8593 34.5665 -10.0052
lowerback 18.3496 1.17777 3.57283
upperback 4.28083 2.90918 7.51276
thorax -5.89432 1.48623 5.38367
lowerneck -16.3797 0.821128 -5.8909
upperneck 19.7351 3.28671 -2.29982
head 8.86056 0.879118 0.599457
rclavicle -3.39922e-014 6.36111e-015
rhumerus -32.7458 30.094 -67.5775
rradius 108.363
rwrist -8.27943
rhand -8.39267 23.5698
rfingers 7.12502
rthumb 17.531 -5.65972
lclavicle -3.39922e-014 6.36111e-015
lhumerus -44.6231 2.94325 80.7038
lradius 103.844
lwrist 24.0287
lhand -13.6281 10.1584
lfingers 7.12502
lthumb 12.4877 39.7653
rfemur -20.5495 -2.97789 6.84092
rtibia 57.7061
rfoot -21.5883 -4.31959
rtoes -32.8648
lfemur -33.3932 10.5059 -16.4745
ltibia 89.8182
lfoot -9.00835 -22.3721
ltoes -8.7727
84
root -9.58313 15.0008 -1.90655 -11.1034 35.1331 -10.4991
lowerback 18.4793 1.53182 4.02363
upperback 4.31082 3.4773 7.55132
thorax -5.94858 1.75997 5.03065
lowerneck -16.4057 0.626618 -5.84157
upperneck 19.8537 2.9794 -2.13962
head 8.90825 0.752997 0.60951
rclavicle 7.35503e-014 4.13472e-014
rhumerus -31.7445 30.1991 -67.7049
rradius 108.699
rwrist -8.07805
rhand -8.74354 23.8027
rfingers 7.12502
rthumb 17.1933 -5.45667
lclavicle 7.35503e-014 4.13472e-014
lhumerus -45.3597 2.73718 80.7356
lradius 103.947
lwrist 23.2676
lhand -13.5412 9.71342
lfingers 7.12502
lthumb 12.5715 39.3152
rfemur -19.5645 -3.47385 7.23628
rtibia 57.7645
rfoot -22.3412 -4.44659
rtoes -33.2066
lfemur -34.7542 11.4008 -17.1045
ltibia 90.122
lfoot -10.1216 -20.1328
ltoes -10.9566
85
root -9.49108 15.0042 -1.70993 -11.016 35.7903 -10.6218
lowerback 18.6196 1.85893 4.34264
upperback 4.1936 3.97618 7.37337
thorax -6.14751 1.99467 4.53048
lowerneck -16.1331 0.567624 -5.4855
upperneck 19.7779 2.78576 -2.15244
head 8.83874 0.694195 0.521272
rclavicle 1.03368e-014 -1.90833e-014
rhumerus -30.9398 30.4022 -68.1758
rradius 109.396
rwrist -7.86131
rhand -9.56025 23.4062
rfingers 7.12502
rthumb 16.4071 -5.91991
lclavicle 1.03368e-014 -1.90833e-014
lhumerus -46.235 2.43903 80.5519
lradius 104.082
lwrist 22.4802
lhand -13.3421 9.5458
lfingers 7.12502
lthumb 12.7634 39.1357
rfemur -18.5445 -4.0054 7.26002
rtibia 57.6941
rfoot -23.1059 -4.8766
rtoes -33.8533
lfemur -36.2278 11.8431 -18.1598
ltibia 90.317
lfoot -10.8131 -17.9959
ltoes -12.0392
86
root -9.39605 15.0058 -1.51273 -11.1707 36.3287 -11.0743
lowerback 18.82 2.1785 4.89566
upperback 4.12806 4.52504 7.31884
thorax -6.30817 2.25068 4.01868
lowerneck -16.0914 0.465625 -5.38709
upperneck 19.7102 2.59613 -2.07056
head 8.80986 0.624683 0.509506
rclavicle 6.77856e-014 2.54444e-014
rhumerus -29.8812 30.5624 -68.4405
rradius 110.265
rwrist -8.54801
rhand -10.1337 22.9307
rfingers 7.12502
rthumb 15.8549 -6.44013
lclavicle 6.77856e-014 2.54444e-014
lhumerus -47.2165 2.14857 80.391
lradius 104.451
lwrist 21.9042
lhand -12.3849 9.3723
lfingers 7.12502
lthumb 13.6861 38.9023
rfemur -17.3693 -4.2998 7.62996
rtibia 57.4513
rfoot -23.8888 -5.34418
rtoes -34.4143
lfemur -37.6503 12.1067 -18.8037
ltibia 90.5136
lfoot -11.7409 -16.1129
ltoes -13.7881
87
root -9.29481 15.0205 -1.30828 -11.5607 36.8888 -11.8184
lowerback 18.8284 2.46383 5.40156
upperback 4.15111 5.00732 7.38176
thorax -6.27069 2.4804 3.68531
lowerneck -16.0838 0.344181 -5.35862
upperneck 19.6962 2.35249 -1.77223
head 8.80167 0.545364 0.576516
rclavicle -5.58585e-014 3.33958e-014
rhumerus -29.0187 30.7618 -68.9258
rradius 111.205
rwrist -9.67554
rhand -10.6795 23.1737
rfingers 7.12502
rthumb 15.3292 -6.23816
lclavicle -5.58585e-014 3.33958e-014
lhumerus -48.1958 1.81998 80.2983
lradius 104.946
lwrist 21.9002
lhand -10.9199 9.17134
lfingers 7.12502
lthumb 15.0976 38.6007
rfemur -15.8623 -4.68617 8.25983
rtibia 56.7827
rfoot -24.2844 -6.28788
rtoes -36.3665
lfemur -38.9015 12.2502 -19.0247
ltibia 90.6404
lfoot -12.4228 -14.7887
ltoes -13.6111
